<?xml version="1.0" encoding="utf-8"?>
<!-- Generator: Adobe Illustrator 16.0.0, SVG Export Plug-In . SVG Version: 6.00 Build 0)  -->
<!DOCTYPE svg PUBLIC "-//W3C//DTD SVG 1.1//EN" "http://www.w3.org/Graphics/SVG/1.1/DTD/svg11.dtd">
<svg version="1.1" id="Layer_1" xmlns="http://www.w3.org/2000/svg" xmlns:xlink="http://www.w3.org/1999/xlink" x="0px" y="0px"
	 width="128px" height="20px" viewBox="0 0 128 20" enable-background="new 0 0 128 20" xml:space="preserve">
<defs>
	<filter id="Adobe_OpacityMaskFilter" filterUnits="userSpaceOnUse" x="0" y="0" width="128" height="20">
		<feColorMatrix  type="matrix" values="1 0 0 0 0  0 1 0 0 0  0 0 1 0 0  0 0 0 1 0"/>
	</filter>
</defs>
<mask maskUnits="userSpaceOnUse" x="0" y="0" width="128" height="20" id="a">
	<path fill="#FFFFFF" filter="url(#Adobe_OpacityMaskFilter)" d="M3,0h122c1.656,0,3,1.343,3,3v14c0,1.656-1.344,3-3,3H3
		c-1.657,0-3-1.344-3-3V3C0,1.343,1.343,0,3,0z"/>
</mask>
<g mask="url(#a)">
	<path fill="#555555" d="M0,0h49v20H0V0z"/>
	<path fill="#007EC6" d="M49,0h79v20H49V0z"/>
	
		<linearGradient id="SVGID_1_" gradientUnits="userSpaceOnUse" x1="-239.1133" y1="387.2256" x2="-239.1133" y2="386.2256" gradientTransform="matrix(128 0 0 -20 30670.5 7744.5)">
		<stop  offset="0" style="stop-color:#BBBBBB;stop-opacity:0.1"/>
		<stop  offset="1" style="stop-color:#000000;stop-opacity:0.1"/>
	</linearGradient>
	<path fill="url(#SVGID_1_)" d="M0,0h128v20H0V0z"/>
</g>
<g>
	<g enable-background="new    ">
		<text transform="matrix(1 0 0 1 5.3652 15)" fill="#010101" font-family="'Verdana'" font-size="11">python</text>
	</g>
	<text transform="matrix(1 0 0 1 5.3652 14)" fill="#FFFFFF" font-family="'Verdana'" font-size="11">python</text>
	<g enable-background="new    ">
		<text transform="matrix(1 0 0 1 52.6494 15)" fill="#010101" font-family="'Verdana'" font-size="11">3.3, 3.4, 3.5</text>
	</g>
	<text transform="matrix(1 0 0 1 52.6494 14)" fill="#FFFFFF" font-family="'Verdana'" font-size="11">3.3, 3.4, 3.5</text>
</g>
</svg>
